<svg width="180" height="62" viewBox="0 0 180 62" fill="none" xmlns="http://www.w3.org/2000/svg">
<path opacity="0.8" d="M25.8021 0.0355225L0 17.1349V17.1671L19.9519 30.3824L25.8021 26.4983V0.0355225Z" fill="#7152F3"/>
<path opacity="0.8" d="M0 43.646L25.8021 60.729V34.2663L19.9519 30.3823L0 43.5976V43.646Z" fill="#7152F3"/>
<path opacity="0.8" d="M54.1343 17.5542L28.3325 0.454834V26.9177L34.1988 30.8017L54.1343 17.5864V17.5542Z" fill="#7152F3"/>
<path opacity="0.8" d="M28.3325 61.1485L54.1343 44.0489V44.0167L34.1988 30.8014L28.3325 34.6854V61.1485Z" fill="#7152F3"/>
<path opacity="0.8" d="M0 17.1671V43.5977L19.9519 30.3824L0 17.1671Z" fill="#250C92"/>
<path opacity="0.8" d="M54.1351 44.0169V17.5863L34.199 30.8017L54.1351 44.0169Z" fill="#250C92"/>
<path d="M84.8954 45.6666V17.1472H89.2955V45.6666H84.8954ZM66.2762 45.6666V17.1472H70.6764V45.6666H66.2762ZM68.1911 33.5662V29.329H86.851V33.5662H68.1911Z" fill="#16151C"/>
<path d="M97.2704 45.6666V17.1472H109.412C111.041 17.1472 112.535 17.5546 113.893 18.3694C115.278 19.1571 116.378 20.2436 117.193 21.6288C118.008 22.9869 118.416 24.5215 118.416 26.2326C118.416 27.7808 118.008 29.2204 117.193 30.5513C116.378 31.8822 115.292 32.9551 113.934 33.7699C112.576 34.5576 111.068 34.9514 109.412 34.9514H101.671V45.6666H97.2704ZM114.219 45.6666L106.967 32.7921L111.489 31.7736L119.556 45.7073L114.219 45.6666ZM101.671 30.7143H109.819C110.607 30.7143 111.313 30.5241 111.938 30.1439C112.562 29.7365 113.051 29.1932 113.404 28.5142C113.757 27.808 113.934 27.0339 113.934 26.1919C113.934 25.2413 113.703 24.4128 113.241 23.7066C112.807 22.9733 112.182 22.4029 111.367 21.9955C110.579 21.588 109.683 21.3843 108.678 21.3843H101.671V30.7143Z" fill="#16151C"/>
<path d="M125.599 45.6666V17.1472H129.918L140.307 34.0551L138.229 34.0144L148.74 17.1472H152.815V45.6666H148.414V33.9736C148.414 31.5291 148.469 29.329 148.577 27.3734C148.713 25.4178 148.93 23.4758 149.229 21.5473L149.8 23.0548L140.47 37.4774H137.781L128.736 23.2177L129.184 21.5473C129.483 23.3671 129.687 25.2413 129.795 27.1697C129.931 29.071 129.999 31.339 129.999 33.9736V45.6666H125.599Z" fill="#16151C"/>
<path d="M169.611 46.074C168.063 46.074 166.623 45.8703 165.292 45.4629C163.988 45.0555 162.793 44.4443 161.707 43.6295C160.648 42.7875 159.697 41.7554 158.855 40.5331L161.87 37.07C163.201 38.9713 164.477 40.2886 165.7 41.022C166.922 41.7554 168.375 42.122 170.059 42.122C171.091 42.122 172.028 41.9591 172.87 41.6331C173.712 41.3072 174.378 40.859 174.867 40.2886C175.355 39.7183 175.6 39.0664 175.6 38.333C175.6 37.8441 175.518 37.3824 175.355 36.9478C175.192 36.5132 174.934 36.1194 174.581 35.7663C174.255 35.4132 173.821 35.0872 173.278 34.7885C172.762 34.4897 172.15 34.2317 171.444 34.0144C170.738 33.7699 169.923 33.5662 169 33.4032C167.533 33.1045 166.256 32.7106 165.17 32.2217C164.083 31.7328 163.174 31.1217 162.44 30.3883C161.707 29.655 161.164 28.8266 160.811 27.9031C160.457 26.9524 160.281 25.8931 160.281 24.7252C160.281 23.5844 160.525 22.5251 161.014 21.5473C161.53 20.5695 162.223 19.7275 163.092 19.0213C163.988 18.2879 165.034 17.7311 166.229 17.3509C167.424 16.9435 168.714 16.7397 170.1 16.7397C171.566 16.7397 172.911 16.9299 174.133 17.3101C175.355 17.6904 176.442 18.2608 177.393 19.0213C178.343 19.7547 179.131 20.6646 179.756 21.751L176.659 24.8067C176.116 23.9103 175.505 23.1634 174.826 22.5659C174.147 21.9411 173.4 21.4794 172.585 21.1806C171.77 20.8547 170.901 20.6917 169.977 20.6917C168.918 20.6917 167.995 20.8547 167.207 21.1806C166.419 21.5066 165.795 21.9683 165.333 22.5659C164.898 23.1362 164.681 23.8153 164.681 24.603C164.681 25.1733 164.79 25.703 165.007 26.1919C165.224 26.6536 165.55 27.0746 165.985 27.4549C166.446 27.808 167.058 28.1339 167.818 28.4327C168.579 28.7043 169.489 28.9488 170.548 29.1661C172.042 29.492 173.373 29.913 174.541 30.4291C175.709 30.918 176.7 31.5019 177.515 32.181C178.33 32.86 178.941 33.6205 179.348 34.4625C179.783 35.3045 180 36.2144 180 37.1923C180 39.0121 179.579 40.5874 178.737 41.9183C177.895 43.2492 176.7 44.2814 175.152 45.0147C173.604 45.7209 171.757 46.074 169.611 46.074Z" fill="#16151C"/>
</svg>
