<svg width="24" height="24" viewBox="0 0 24 24" fill="none" xmlns="http://www.w3.org/2000/svg">
<path d="M8 6V5C8 3.34315 9.34315 2 11 2H13C14.6569 2 16 3.34315 16 5V6M2 10.3475C2 10.3475 5.11804 12.4244 9.97767 12.9109M22 10.3475C22 10.3475 18.882 12.4244 14.0223 12.9109M6 22H18C20.2091 22 22 20.2091 22 18V10C22 7.79086 20.2091 6 18 6H6C3.79086 6 2 7.79086 2 10V18C2 20.2091 3.79086 22 6 22Z" stroke="#16151C" stroke-width="1.5" stroke-linecap="round"/>
<path d="M14 12.1602V13.1602C14 13.1702 14 13.1702 14 13.1802C14 14.2702 13.99 15.1602 12 15.1602C10.02 15.1602 10 14.2802 10 13.1902V12.1602C10 11.1602 10 11.1602 11 11.1602H13C14 11.1602 14 11.1602 14 12.1602Z" stroke="#16151C" stroke-width="1.5" stroke-miterlimit="10" stroke-linecap="round" stroke-linejoin="round"/>
</svg>
